PathFileType	4	(X/Y/Z)	../Python\walking\Walking21\task.trc
DataRate	CameraRate	NumFrames	NumMarkers	Units	OrigDataRate	OrigDataStartFrame	OrigNumFrames
200.000000	200.000000	4	30	mm	200.000000	177	474
Frame#	Time	CLAV			STRN			RASI			LASI			PE01			RTH1			RTH2			RTH3			RTB1			RTB3			RHEE			RD5M			RTOE			LTH2			LTH3			LTB1			LTB2			LTB3			LHEE			LTOE			LD5M			RBAK			LTH1			RTB2			C7			PE03			LPSI			PE02			RPSI			T10			
		X1	Y1	Z1	X2	Y2	Z2	X3	Y3	Z3	X4	Y4	Z4	X5	Y5	Z5	X6	Y6	Z6	X7	Y7	Z7	X8	Y8	Z8	X9	Y9	Z9	X10	Y10	Z10	X11	Y11	Z11	X12	Y12	Z12	X13	Y13	Z13	X14	Y14	Z14	X15	Y15	Z15	X16	Y16	Z16	X17	Y17	Z17	X18	Y18	Z18	X19	Y19	Z19	X20	Y20	Z20	X21	Y21	Z21	X22	Y22	Z22	X23	Y23	Z23	X24	Y24	Z24	X25	Y25	Z25	X26	Y26	Z26	X27	Y27	Z27	X28	Y28	Z28	X29	Y29	Z29	X30	Y30	Z30	

178	0.885	-182.1436614990235	1270.8701171875	187.4072265625001	-120.2348251342774	1086.197143554688	189.3410186767579	-158.1824188232422	887.0811157226567	306.8497314453126	-147.0372924804688	885.1213378906255	81.65521240234378	-348.502899169922	962.3535156250005	198.7754364013673	-134.4031372070313	602.1563720703127	341.0867919921876	-89.76963043212893	537.7259521484377	327.3413085937501	-84.14054870605472	598.7167968750002	334.659881591797	-107.2921905517579	323.6234436035157	314.5166015625001	-148.8597717285157	255.7248840332032	308.0677795410157	-298.8522033691407	106.8835830688477	241.3218383789064	-168.1349639892579	51.94561386108401	319.8842163085939	-131.7906188964844	51.80130386352542	275.5443115234376	-241.4613342285157	560.9781494140627	71.8833923339844	-168.8274078369141	591.9780273437502	77.0927429199219	-286.7941894531251	286.2505187988282	92.9213562011719	-299.6676635742189	209.1541290283204	107.2512207031251	-258.8376464843751	234.0842742919923	112.6476440429688	-350.1328430175782	36.73781967163087	169.8827819824219	-158.3477020263672	29.31285858154298	187.7338409423829	-196.7898864746095	15.08353233337403	133.155502319336	-351.3220825195314	1262.20654296875	293.3236389160157	-209.5993652343751	613.8029785156252	59.37886047363284	-163.544662475586	301.2696533203126	325.0095825195314	-307.3316040039064	1360.174194335938	192.5496063232423	-361.7484741210939	902.812866210938	169.698471069336	-349.4738159179689	927.205688476563	154.4171142578126	-363.7695617675782	901.112182617188	220.3448638916017	-352.0499267578126	925.750122070313	243.2270965576173	-329.277313232422	1063.867431640625	191.2623291015626	
179	0.89	-175.8926849365235	1270.489868164063	187.6477508544922	-113.9846420288087	1085.87939453125	189.2540130615235	-151.6456451416016	886.9340209960942	306.3876953125001	-140.9757843017579	884.5215454101567	81.19412231445315	-342.1865844726564	961.9760131835942	198.8651428222657	-126.6349411010743	602.534851074219	339.982391357422	-81.6714782714844	538.392517089844	326.0161437988282	-76.40921783447268	599.343444824219	333.5537109375001	-93.929557800293	323.101043701172	313.7469482421876	-133.3348846435547	253.9861450195314	307.5274963378907	-278.5969543457032	99.88233184814459	241.8017730712892	-145.211898803711	49.77898406982425	319.156707763672	-109.202247619629	51.05940628051761	274.4058227539064	-238.6845092773439	560.971862792969	71.69389343261722	-165.7281341552735	591.1843872070315	77.00368499755862	-286.0772705078126	286.2994995117189	92.71508789062503	-299.1662902832032	209.2775726318361	107.0626449584962	-258.2520141601564	234.0704803466798	112.4960021972657	-350.1426391601564	36.92201995849611	169.8859558105469	-158.3380432128907	29.23023796081544	187.7637939453126	-196.7663421630861	15.11548233032227	133.1512298583985	-345.2041931152345	1261.738647460938	293.080047607422	-206.2642364501954	613.4692993164065	59.26294708251956	-149.3538665771485	298.9661560058595	324.5838317871095	-301.0285644531251	1359.797119140625	192.7207489013673	-355.6365966796876	902.4020385742192	169.926986694336	-343.3763732910157	926.8192749023442	154.5234680175782	-357.4730834960939	900.7835083007817	220.6004180908204	-345.7254333496095	925.392944335938	243.3586578369142	-323.0325622558595	1063.438354492188	190.9914550781251	
180	0.895	-169.6365966796876	1270.005859375	187.8632354736329	-107.7236480712891	1085.44970703125	189.1447448730469	-145.0896148681641	886.6504516601567	305.954315185547	-134.9074096679688	883.8384399414067	80.7466735839844	-335.8479309082032	961.4926757812505	199.0112457275392	-118.9986038208008	602.7498168945315	338.9195556640626	-73.73748016357425	538.882751464844	324.7185974121095	-68.8121032714844	599.789489746094	332.4279785156251	-80.71850585937503	322.5516052246095	312.9985961914064	-117.8761138916016	252.2710571289064	306.9869079589845	-258.1071777343751	93.00861358642581	242.1880035400392	-122.2735214233399	47.81085586547853	318.3682861328126	-86.63417816162112	50.50184249877933	273.228729248047	-235.8937377929689	560.927673339844	71.47732543945315	-162.6304168701172	590.3665771484377	76.85749816894534	-285.3005981445314	286.3393859863282	92.50433349609378	-298.6173095703126	209.3950042724611	106.8678207397462	-257.6088256835939	234.0420227050782	112.3317337036133	-350.1549072265626	37.11195755004884	169.8963928222657	-158.3208770751954	29.15061569213869	187.7794494628907	-196.7417907714845	15.14342594146729	133.1411743164063	-339.0715942382814	1261.181640625	292.840545654297	-202.9407501220704	613.0972900390627	59.11209106445315	-135.2452087402344	296.6492309570314	324.1183471679689	-294.7192993164064	1359.326904296875	192.8875732421876	-349.5171813964845	901.9026489257817	170.1923217773438	-337.2762145996095	926.339477539063	154.6785125732422	-351.1673278808595	900.3475952148442	220.8898773193361	-339.390838623047	924.9184570312505	243.5241241455079	-316.788055419922	1062.910278320313	190.7646789550782	
181	0.9	-163.3736114501954	1269.419067382813	188.0540618896485	-101.451515197754	1084.908325195313	189.0140686035157	-138.5149993896485	886.2314453125005	305.5496520996095	-128.832992553711	883.0758666992192	80.31225585937503	-329.4862365722657	960.9046020507817	199.2115325927736	-111.4925537109376	602.7944335937502	337.909149169922	-65.96253967285159	539.191345214844	323.4588623046876	-61.34461593627933	600.0527954101565	331.2894592285157	-67.66422271728518	321.9782714843751	312.2673645019532	-102.4927597045899	250.5882720947267	306.4399719238282	-237.4038085937501	86.30342864990237	242.4679412841798	-99.34889984130865	46.06492614746095	317.5184326171876	-64.11258697509768	50.14924240112308	272.0156555175782	-233.0801849365236	560.8436279296877	71.23865509033206	-159.5245361328126	589.5257568359377	76.65206146240237	-284.4591674804689	286.3708496093751	92.29261779785159	-298.0202026367189	209.5064697265626	106.6731414794922	-256.9047241210939	233.9978332519532	112.1561737060547	-350.1694946289064	37.30712127685548	169.917709350586	-158.2942810058594	29.07753562927248	187.7802734375001	-196.7169494628907	15.16649436950684	133.1262817382813	-332.9234924316407	1260.536743164063	292.6054992675782	-199.6211242675782	612.6877441406252	58.92781829833987	-121.2233886718751	294.3248901367189	323.6117553710939	-288.4022521972657	1358.765625	193.0499572753907	-343.3899841308595	901.3154296875005	170.4928894042969	-331.1726074218751	925.7673339843755	154.8807220458985	-344.8526306152345	899.8061523437505	221.2114715576173	-333.0466613769532	924.3273925781255	243.7206573486329	-310.5440063476564	1062.285766601563	190.5815734863282	
